<?xml version="1.0" encoding="UTF-8" standalone="no"?>
<svg
   xmlns:dc="http://purl.org/dc/elements/1.1/"
   xmlns:cc="http://creativecommons.org/ns#"
   xmlns:rdf="http://www.w3.org/1999/02/22-rdf-syntax-ns#"
   xmlns:svg="http://www.w3.org/2000/svg"
   xmlns="http://www.w3.org/2000/svg"
   xmlns:sodipodi="http://sodipodi.sourceforge.net/DTD/sodipodi-0.dtd"
   xmlns:inkscape="http://www.inkscape.org/namespaces/inkscape"
   width="210mm"
   height="297mm"
   viewBox="0 0 210 297"
   version="1.1"
   id="svg8"
   inkscape:version="1.0.2 (e86c870879, 2021-01-15, custom)"
   sodipodi:docname="chart-pie-hm-is.svg">
  <defs
     id="defs2" />
  <sodipodi:namedview
     id="base"
     pagecolor="#ffffff"
     bordercolor="#666666"
     borderopacity="1.0"
     inkscape:pageopacity="0.0"
     inkscape:pageshadow="2"
     inkscape:zoom="1"
     inkscape:cx="400"
     inkscape:cy="253.4448"
     inkscape:document-units="mm"
     inkscape:current-layer="layer1"
     inkscape:document-rotation="0"
     showgrid="false"
     showguides="true"
     inkscape:guide-bbox="true"
     inkscape:window-width="1920"
     inkscape:window-height="1001"
     inkscape:window-x="-9"
     inkscape:window-y="-9"
     inkscape:window-maximized="1">
    <sodipodi:guide
       position="-592.66665,444.41073"
       orientation="0.70710678,-0.70710678"
       id="guide14" />
    <sodipodi:guide
       position="-558.6488,450.45835"
       orientation="0.70710678,-0.70710678"
       id="guide16" />
    <sodipodi:guide
       position="-540.50594,467.0893"
       orientation="0.70710678,-0.70710678"
       id="guide18" />
    <sodipodi:guide
       position="61.988094,225.94048"
       orientation="0,-1"
       id="guide20" />
    <sodipodi:guide
       position="68.035713,181.33929"
       orientation="1,0"
       id="guide22" />
  </sodipodi:namedview>
  <metadata
     id="metadata5">
    <rdf:RDF>
      <cc:Work
         rdf:about="">
        <dc:format>image/svg+xml</dc:format>
        <dc:type
           rdf:resource="http://purl.org/dc/dcmitype/StillImage" />
        <dc:title></dc:title>
      </cc:Work>
    </rdf:RDF>
  </metadata>
  <g
     inkscape:label="Layer 1"
     inkscape:groupmode="layer"
     id="layer1">
    <path
       id="path12"
       style="stroke-width:0.134088"
       d="M 30.414127,7.867449 A 25.508131,25.171878 0 0 0 5.2916667,33.036474 25.508131,25.171878 0 0 0 30.799823,58.208333 25.508131,25.171878 0 0 0 56.307911,33.036474 25.508131,25.171878 0 0 0 56.307469,32.881252 c -0.279905,6.44e-4 -0.470103,0.0026 -0.772501,0.0026 H 33.957361 c -1.962972,0 -3.543234,-0.0161 -3.543234,-0.0333 z" />
    <path
       id="path27"
       style="stroke-width:0.134088"
       d="M 58.208333,30.191692 A 25.508131,25.171878 0 0 0 32.894217,5.2916667 c 0.0021,0.6034561 0.0022,1.3153183 -10e-4,2.1611528 L 32.680506,55.634466 a 25.508131,25.171878 0 0 0 0.06723,1.3e-5 c 5.14e-4,-0.276164 -0.001,-0.463887 2e-4,-0.762204 l 0.094,-21.29299 c 0.0067,-1.937092 0.03105,-3.496459 0.04912,-3.496367 z" />
  </g>
</svg>
