<?xml version="1.0" encoding="UTF-8" standalone="no"?>
<svg
   xmlns:dc="http://purl.org/dc/elements/1.1/"
   xmlns:cc="http://creativecommons.org/ns#"
   xmlns:rdf="http://www.w3.org/1999/02/22-rdf-syntax-ns#"
   xmlns:svg="http://www.w3.org/2000/svg"
   xmlns="http://www.w3.org/2000/svg"
   width="210mm"
   height="297mm"
   viewBox="0 0 210 297"
   version="1.1"
   id="svg8">
  <defs
     id="defs2" />
  <metadata
     id="metadata5">
    <rdf:RDF>
      <cc:Work
         rdf:about="">
        <dc:format>image/svg+xml</dc:format>
        <dc:type
           rdf:resource="http://purl.org/dc/dcmitype/StillImage" />
        <dc:title></dc:title>
      </cc:Work>
    </rdf:RDF>
  </metadata>
  <g
     id="layer1">
    <path
       id="path12"
       style="stroke-width:0.134088"
       d="M 30.414127,7.867449 A 25.508131,25.171878 0 0 0 5.2916667,33.036474 25.508131,25.171878 0 0 0 30.799823,58.208333 25.508131,25.171878 0 0 0 56.307911,33.036474 25.508131,25.171878 0 0 0 56.307469,32.881252 c -0.279905,6.44e-4 -0.470103,0.0026 -0.772501,0.0026 H 33.957361 c -1.962972,0 -3.543234,-0.0161 -3.543234,-0.0333 z" />
    <path
       id="path27"
       style="stroke-width:0.134088"
       d="M 58.208333,30.191692 A 25.508131,25.171878 0 0 0 32.894217,5.2916667 c 0.0021,0.6034561 0.0022,1.3153183 -10e-4,2.1611528 L 32.680506,55.634466 a 25.508131,25.171878 0 0 0 0.06723,1.3e-5 c 5.14e-4,-0.276164 -0.001,-0.463887 2e-4,-0.762204 l 0.094,-21.29299 c 0.0067,-1.937092 0.03105,-3.496459 0.04912,-3.496367 z" />
  </g>
</svg>
